<?xml version="1.0" encoding="utf-8"?>
<!-- Generator: Adobe Illustrator 17.1.0, SVG Export Plug-In . SVG Version: 6.00 Build 0)  -->
<!DOCTYPE svg PUBLIC "-//W3C//DTD SVG 1.1//EN" "http://www.w3.org/Graphics/SVG/1.1/DTD/svg11.dtd">
<svg version="1.1" id="Layer_1" xmlns="http://www.w3.org/2000/svg" xmlns:xlink="http://www.w3.org/1999/xlink" x="0px" y="0px"
	 viewBox="0 0 612 792" enable-background="new 0 0 612 792" xml:space="preserve">
<g>
	<g>
		<g id="Layer_1_1_" display="none">
			<defs>
				<rect id="SVGID_1_" x="220.2" y="325.1" width="194.3" height="61.8"/>
			</defs>
			<use xlink:href="#SVGID_1_"  display="inline" overflow="visible" fill="#EEEEEE"/>
			<clipPath id="SVGID_2_" display="inline">
				<use xlink:href="#SVGID_1_"  overflow="visible"/>
			</clipPath>
			<g id="inverse_x5F_carrot.psd_1_" display="inline" clip-path="url(#SVGID_2_)">
				<g id="Group_1">
					<g id="Shape_1_1_" enable-background="new    ">
						<defs>
							<path id="SVGID_3_" enable-background="new    " d="M220.2,325.1c0,0,74.9,60.1,95.4,60.1c20.5,0,98.9-60.1,98.9-60.1H220.2
								L220.2,325.1z"/>
						</defs>
						<use xlink:href="#SVGID_3_"  overflow="visible" fill="#EEEEEE"/>
						<clipPath id="SVGID_4_">
							<use xlink:href="#SVGID_3_"  overflow="visible"/>
						</clipPath>
						<g clip-path="url(#SVGID_4_)">
						</g>
					</g>
					<defs>
						<filter id="Adobe_OpacityMaskFilter" filterUnits="userSpaceOnUse" x="-7886" y="-7796" width="0" height="0">
							<feColorMatrix  type="matrix" values="1 0 0 0 0  0 1 0 0 0  0 0 1 0 0  0 0 0 1 0"/>
						</filter>
					</defs>
					<mask maskUnits="userSpaceOnUse" x="-7886" y="-7796" width="0" height="0" id="Layer_4_x27_s_Outer_Stroke_2_">
						<g id="Layer_4_x27_s_Outer_StrokeOpacity_Mask_1_" filter="url(#Adobe_OpacityMaskFilter)">
						</g>
					</mask>
					<g mask="url(#Layer_4_x27_s_Outer_Stroke_2_)">
					</g>
				</g>
			</g>
		</g>
		<g id="Layer_2">
			<path fill="#DDDDDD" d="M126.2,381.3c8.9,8.9,166,116.5,168.7,118.5c8.4,6.2,13.2,6.5,21.2,0c11.7-9.5,170.1-119.1,169.8-118.5
				H126.2z"/>
			<path fill="#FFFFFF" d="M132.2,381.4c8.9,8.9,160,111.5,162.7,113.5c8.4,6.2,13.2,6.5,21.2,0c11.7-9.5,164.1-114.1,163.8-113.5
				H132.2z"/>
		</g>
	</g>
</g>
</svg>
