<?xml version="1.0" encoding="utf-8"?>
<!-- Generator: Adobe Illustrator 17.1.0, SVG Export Plug-In . SVG Version: 6.00 Build 0)  -->
<!DOCTYPE svg PUBLIC "-//W3C//DTD SVG 1.1//EN" "http://www.w3.org/Graphics/SVG/1.1/DTD/svg11.dtd">
<svg version="1.1" xmlns="http://www.w3.org/2000/svg" xmlns:xlink="http://www.w3.org/1999/xlink" x="0px" y="0px"
	 viewBox="0 0 583.661 411.129" enable-background="new 0 0 583.661 411.129" xml:space="preserve" width="323" height="232">
<g id="Layer_2" display="none">
</g>
<g id="Layer_1">
	<g>
		<g opacity="0.84">
			<path fill="#AAAAAA" d="M285.455,4.751c112.227,0,203.187,90.974,203.187,203.199c0,112.2-90.959,203.179-203.187,203.179
				c-112.22,0-203.187-90.979-203.187-203.179C82.268,95.726,173.234,4.751,285.455,4.751z"/>
			<path fill="#AAAAAA" d="M285.455,62.065c80.563,0,145.877,65.317,145.877,145.885c0,80.552-65.314,145.865-145.877,145.865
				c-80.56,0-145.87-65.313-145.87-145.865C139.585,127.382,204.895,62.065,285.455,62.065z"/>
		</g>
		<path fill="#AAAAAA" d="M583.661,89.603c0-33.785-19.921-61.172-44.487-61.172c-24.562,0-44.48,27.387-44.48,61.172
			c0,29.795,15.493,54.589,36.011,60.022l-3.263,203.922c0,6.475,5.256,11.727,11.732,11.727c6.475,0,11.731-5.252,11.731-11.727
			l-3.212-203.925C568.186,144.145,583.661,119.374,583.661,89.603z"/>
		<path fill="#AAAAAA" d="M59.676,116.387l-3.011-87.491c0-1.599-1.293-2.895-2.896-2.895c-1.594,0-2.895,1.296-2.895,2.895v80.002
			c-0.302-0.028-0.604-0.094-0.913-0.094h-6.243l-2.249-79.901c0.011-1.599-1.274-2.903-2.876-2.915
			c-1.595-0.008-2.903,1.277-2.911,2.88l-0.503,79.936h-7.106l-1.489-79.982c-0.032-1.606-1.355-2.876-2.953-2.841
			c-1.599,0.027-2.868,1.347-2.845,2.946l-1.25,79.878h-6.023c-0.313,0-0.615,0.066-0.921,0.094V28.895
			c0-1.599-1.297-2.895-2.891-2.895c-1.603,0-2.903,1.296-2.903,2.895l-3,87.491c-0.205,0.793-0.344,1.618-0.344,2.465v14.135
			c0,5.45,13.976,19.523,19.759,20.065L20,353.548c0,6.475,5.252,11.727,11.731,11.727s11.731-5.252,11.731-11.727l-3.154-200.504
			c5.805-0.615,19.708-14.622,19.708-20.057v-14.135C60.016,118.004,59.877,117.18,59.676,116.387z"/>
	</g>
	<g>
		<g opacity="0.84">
			<path fill="#FFFFFF" d="M283.554,0.751c112.227,0,203.187,90.974,203.187,203.199c0,112.2-90.959,203.179-203.187,203.179
				c-112.22,0-203.187-90.979-203.187-203.179C80.367,91.726,171.333,0.751,283.554,0.751z"/>
			<path fill="#FFFFFF" d="M283.554,58.065c80.563,0,145.877,65.317,145.877,145.885c0,80.552-65.314,145.865-145.877,145.865
				c-80.56,0-145.87-65.313-145.87-145.865C137.684,123.382,202.994,58.065,283.554,58.065z"/>
		</g>
		<path fill="#FFFFFF" d="M581.76,85.603c0-33.785-19.921-61.172-44.487-61.172c-24.562,0-44.48,27.387-44.48,61.172
			c0,29.795,15.493,54.589,36.011,60.022l-3.263,203.922c0,6.475,5.256,11.727,11.732,11.727c6.475,0,11.731-5.252,11.731-11.727
			l-3.212-203.925C566.285,140.145,581.76,115.374,581.76,85.603z"/>
		<path fill="#FFFFFF" d="M57.775,112.387l-3.011-87.491c0-1.599-1.293-2.895-2.896-2.895c-1.594,0-2.895,1.296-2.895,2.895v80.002
			c-0.302-0.028-0.604-0.094-0.913-0.094h-6.243l-2.249-79.901c0.011-1.599-1.274-2.903-2.876-2.915
			c-1.595-0.008-2.903,1.277-2.911,2.88l-0.503,79.936h-7.106l-1.489-79.982c-0.032-1.606-1.355-2.876-2.953-2.841
			c-1.599,0.027-2.868,1.347-2.845,2.946l-1.25,79.878h-6.023c-0.313,0-0.615,0.066-0.921,0.094V24.895
			C10.691,23.296,9.394,22,7.8,22c-1.603,0-2.903,1.296-2.903,2.895l-3,87.491c-0.205,0.793-0.344,1.618-0.344,2.465v14.135
			c0,5.45,13.976,19.523,19.759,20.065l-3.213,200.496c0,6.475,5.252,11.727,11.731,11.727s11.731-5.252,11.731-11.727
			l-3.154-200.504c5.805-0.615,19.708-14.622,19.708-20.057v-14.135C58.115,114.004,57.977,113.18,57.775,112.387z"/>
	</g>
	<g>
		<g opacity="0.84">
			
				<radialGradient id="SVGID_1_" cx="229.4945" cy="121.9658" r="203.1877" gradientTransform="matrix(0 -1 1 0 160.0349 432.6832)" gradientUnits="userSpaceOnUse">
				<stop  offset="0" style="stop-color:#BEBEBE"/>
				<stop  offset="0.2221" style="stop-color:#D6D6D6"/>
				<stop  offset="0.5031" style="stop-color:#ECECEC"/>
				<stop  offset="0.7685" style="stop-color:#FAFAFA"/>
				<stop  offset="1" style="stop-color:#FFFFFF"/>
			</radialGradient>
			<path fill="url(#SVGID_1_)" d="M282.001,0c112.227,0,203.187,90.974,203.187,203.199c0,112.2-90.959,203.179-203.187,203.179
				c-112.22,0-203.187-90.979-203.187-203.179C78.814,90.974,169.781,0,282.001,0z"/>
			<radialGradient id="SVGID_2_" cx="282.0043" cy="203.1887" r="145.8741" gradientUnits="userSpaceOnUse">
				<stop  offset="0" style="stop-color:#FFFFFF"/>
				<stop  offset="0.6013" style="stop-color:#FDFDFD"/>
				<stop  offset="0.8357" style="stop-color:#F6F6F6"/>
				<stop  offset="1" style="stop-color:#EBEBEB"/>
			</radialGradient>
			<path fill="url(#SVGID_2_)" d="M282.001,57.314c80.563,0,145.877,65.317,145.877,145.885
				c0,80.552-65.314,145.865-145.877,145.865c-80.56,0-145.87-65.313-145.87-145.865C136.131,122.631,201.441,57.314,282.001,57.314
				z"/>
		</g>
		<path fill="#FFFFFF" d="M580.207,84.852c0-33.785-19.921-61.172-44.487-61.172c-24.562,0-44.48,27.387-44.48,61.172
			c0,29.795,15.493,54.589,36.011,60.022l-3.263,203.922c0,6.475,5.256,11.727,11.731,11.727s11.731-5.252,11.731-11.727
			l-3.212-203.925C564.732,139.394,580.207,114.623,580.207,84.852z"/>
		<path fill="#FFFFFF" d="M56.222,111.635l-3.011-87.491c0-1.599-1.293-2.895-2.896-2.895c-1.594,0-2.895,1.296-2.895,2.895v80.002
			c-0.302-0.028-0.604-0.094-0.913-0.094h-6.243l-2.249-79.901c0.011-1.599-1.274-2.903-2.876-2.915
			c-1.595-0.008-2.903,1.277-2.911,2.88l-0.503,79.936h-7.106L23.13,24.07c-0.032-1.606-1.355-2.876-2.953-2.841
			c-1.599,0.027-2.868,1.347-2.845,2.946l-1.25,79.878h-6.023c-0.313,0-0.615,0.066-0.921,0.094V24.144
			c0-1.599-1.297-2.895-2.891-2.895c-1.603,0-2.903,1.296-2.903,2.895l-3,87.491C0.14,112.429,0,113.253,0,114.1v14.135
			c0,5.45,13.976,19.523,19.759,20.065l-3.213,200.496c0,6.475,5.252,11.727,11.731,11.727s11.731-5.252,11.731-11.727
			l-3.154-200.504c5.805-0.615,19.708-14.622,19.708-20.057V114.1C56.562,113.253,56.424,112.429,56.222,111.635z"/>
	</g>
	<g>
		<path fill="#FEECE2" d="M282.18,165.623c1.891,11.447,0.087,12.389-8.66,5.961c5.792,9.109,4.64,10.849-6.549,7.995
			c9.907,6.937,9.859,9.022-2.428,11.371c13.18,1.541,14.122,3.344,4.279,11.954c12.523-5.654,14.262-4.502,10.995,7.926
			c4.078-6.184,6.534-8.908,8.671-8.238v-29.283C286.796,173.192,284.898,170.586,282.18,165.623z"/>
		<path fill="#F9A66D" d="M288.487,253.827c-36.474,0-66.043-29.568-66.043-66.043s29.568-66.043,66.043-66.043h0v-9.722
			c-41.844,0-75.765,33.921-75.765,75.765s33.921,75.765,75.765,75.765L288.487,253.827L288.487,253.827z"/>
		<path fill="#E03A6D" d="M222.445,187.784c0,36.474,29.568,66.043,66.043,66.043h0v-51.236c-2.137-0.67-4.593,2.054-8.671,8.238
			c3.268-12.428,1.528-13.58-10.995-7.926c9.842-8.61,8.9-10.414-4.279-11.954c12.286-2.349,12.335-4.434,2.428-11.371
			c11.189,2.854,12.341,1.115,6.549-7.995c8.748,6.428,10.551,5.486,8.66-5.961c2.718,4.963,4.617,7.569,6.308,7.685v-51.567h0
			C252.013,121.741,222.445,151.309,222.445,187.784z"/>
	</g>
	<g>
		<path fill="#FFFFFF" d="M294.487,165.623c-1.891,11.447-0.087,12.389,8.66,5.961c-5.792,9.109-4.64,10.849,6.549,7.995
			c-9.907,6.937-9.859,9.022,2.428,11.371c-13.18,1.541-14.122,3.344-4.279,11.954c-12.523-5.654-14.263-4.502-10.995,7.926
			c-4.078-6.184-6.534-8.908-8.671-8.238v-29.283C289.871,173.192,291.769,170.586,294.487,165.623z"/>
		<path fill="#F6B28C" d="M288.179,253.827c36.474,0,66.043-29.568,66.043-66.043s-29.568-66.043-66.043-66.043h0v-9.722
			c41.844,0,75.765,33.921,75.765,75.765s-33.921,75.765-75.765,75.765L288.179,253.827L288.179,253.827z"/>
		<path fill="#EE4D81" d="M354.222,187.784c0,36.474-29.568,66.043-66.043,66.043h0v-51.236c2.137-0.67,4.593,2.054,8.671,8.238
			c-3.268-12.428-1.528-13.58,10.995-7.926c-9.842-8.61-8.9-10.414,4.279-11.954c-12.286-2.349-12.335-4.434-2.428-11.371
			c-11.189,2.854-12.341,1.115-6.549-7.995c-8.748,6.428-10.551,5.486-8.66-5.961c-2.718,4.963-4.617,7.569-6.308,7.685v-51.567h0
			C324.654,121.741,354.222,151.309,354.222,187.784z"/>
	</g>
	<path fill="#F1C31B" d="M317.819,82.15c0,0,109.153,24.646,78.365,136.907l7.898,2.018c0,0,14.709-13.068,18.492-31.429
		c3.783-18.361,15.178-62.899-39.779-102.942c0,0-29.725-21.923-63.394-10.744L317.819,82.15z"/>
	<path fill="#F7DD6C" d="M317.819,82.15l-1.227,4.803c0,0,32.632,12.114,57.705,45.468s21.68,75.214,21.888,86.636
		c0,0,3.031,3.678,4.002,1.023c5.104-13.948,16.667-65.299-8.495-97.614C361.739,83.998,317.819,82.15,317.819,82.15z"/>
	
		<rect x="398.836" y="221.129" transform="matrix(-0.2476 0.9689 -0.9689 -0.2476 717.0817 -110.5854)" fill="#5D5330" width="5.287" height="4.02"/>
	
		<rect x="394.941" y="220.133" transform="matrix(-0.2476 0.9689 -0.9689 -0.2476 711.2574 -108.0535)" fill="#756A43" width="5.287" height="4.02"/>
	
		<rect x="306.154" y="80.664" transform="matrix(0.9689 0.2476 -0.2476 0.9689 30.2916 -74.6104)" fill="#F7DD6C" width="11.236" height="4.921"/>
	
		<rect x="307.538" y="74.579" transform="matrix(0.9689 0.2476 -0.2476 0.9689 28.9936 -75.1218)" fill="#F1C31B" width="11.236" height="6.259"/>
	<path fill="#F7DD6C" d="M346.632,224.322"/>
	<path fill="#3E7942" d="M175.94,182.949c0,0-19.403-2.376-19.38,17.846C156.56,200.796,176.901,205.31,175.94,182.949z"/>
	<path fill="#3E7942" d="M195.688,202.951c0,0-19.544,0.406-17.481-19.71C178.207,183.241,198.9,180.801,195.688,202.951z"/>
	<path fill="#324699" d="M178.265,170.958c0.314-6.204,5.598-10.98,11.802-10.666c1.836,0.093,3.547,0.621,5.037,1.479
		c3.547,2.042,5.85,5.955,5.629,10.323c-0.314,6.204-5.598,10.98-11.802,10.666S177.951,177.163,178.265,170.958z"/>
	<g>
		<path fill="#4A61AC" d="M180.403,178.144c3.197,4.441,8.528,4.616,8.528,4.616l0.349-6.898l-3.983,0.754l-0.105-4.052
			l-1.948-3.555l3.821-1.352l2.779-2.951l0.222-4.399c0,0-4.35-0.541-8.023,2.8C178.37,166.448,176.468,172.678,180.403,178.144z"/>
		<polygon fill="#1D1F4E" points="193.166,177.014 193.68,172.993 195.976,169.653 192.311,167.922 189.844,164.705 189.28,175.862 
					"/>
		<polygon fill="#2C2F74" points="185.297,176.616 185.192,172.564 183.244,169.009 187.065,167.656 189.844,164.705 
			189.28,175.862 		"/>
	</g>
	<path fill="#324699" d="M155.202,169.792c0.314-6.204,5.598-10.98,11.802-10.666c1.836,0.093,3.547,0.621,5.037,1.479
		c3.547,2.042,5.849,5.955,5.629,10.323c-0.314,6.204-5.598,10.98-11.802,10.666C159.664,181.28,154.888,175.996,155.202,169.792z"
		/>
	<g>
		<path fill="#4A61AC" d="M157.34,176.978c3.197,4.441,8.528,4.616,8.528,4.616l0.349-6.898l-3.983,0.754l-0.105-4.052l-1.948-3.555
			l3.821-1.352l2.779-2.951l0.222-4.399c0,0-4.35-0.541-8.023,2.8C155.307,165.281,153.405,171.512,157.34,176.978z"/>
		<polygon fill="#1D1F4E" points="170.103,175.848 170.617,171.827 172.914,168.487 169.248,166.756 166.781,163.539 
			166.217,174.696 		"/>
		<polygon fill="#2C2F74" points="162.234,175.45 162.129,171.398 160.181,167.843 164.002,166.49 166.781,163.539 166.217,174.696 
					"/>
	</g>
	<path fill="#324699" d="M167.764,150.236c0.314-6.204,5.598-10.98,11.802-10.666c1.836,0.093,3.547,0.621,5.037,1.479
		c3.547,2.042,5.85,5.955,5.629,10.323c-0.314,6.204-5.598,10.98-11.802,10.666C172.226,161.725,167.45,156.441,167.764,150.236z"/>
	<g>
		<path fill="#4A61AC" d="M169.902,157.423c3.197,4.441,8.528,4.616,8.528,4.616l0.349-6.898l-3.983,0.754l-0.105-4.052
			l-1.948-3.555l3.821-1.352l2.779-2.951l0.222-4.399c0,0-4.35-0.541-8.023,2.8C167.869,145.726,165.967,151.956,169.902,157.423z"
			/>
		<polygon fill="#1D1F4E" points="182.665,156.292 183.179,152.271 185.475,148.931 181.81,147.2 179.343,143.984 178.779,155.14 		
			"/>
		<polygon fill="#2C2F74" points="174.796,155.894 174.691,151.842 172.743,148.287 176.564,146.935 179.343,143.984 
			178.779,155.14 		"/>
	</g>
	<g>
		<path fill="#3E7942" d="M156.652,225.897l-16.564-10.143c0,0-28.806,80.77,65.397,140.854l5.616-9.172
			C131.219,296.131,156.652,225.897,156.652,225.897z"/>
		<path fill="#EF5864" d="M211.101,347.436l39.279-64.143l-97.626-59.782C152.754,223.51,131.219,296.131,211.101,347.436z"/>
		<polygon display="none" fill="#EF5864" points="254.485,276.589 244.244,293.312 211.101,347.436 205.485,356.608 191.24,379.869 
			322.987,460.545 386.232,357.265 		"/>
	</g>
	<path fill="#2B2829" d="M185.243,260.4c0,0,3.46,2.782,5.877-1.123C191.12,259.277,187.735,255.97,185.243,260.4z"/>
	<path fill="#2B2829" d="M192.848,275.568c0,0,4.264,1.237,4.993-3.298C197.841,272.271,193.444,270.52,192.848,275.568z"/>
	<path fill="#2B2829" d="M205.339,290.359c0,0,4.427-0.341,3.514-4.843C208.853,285.517,204.122,285.424,205.339,290.359z"/>
	<path fill="#2B2829" d="M220.043,302.875c0,0,4.414-0.476,3.365-4.948C223.408,297.927,218.676,297.979,220.043,302.875z"/>
	<g>
		<path fill="#379445" d="M342.599,339.764l16.564,10.143c0,0-58.849,62.373-155.187,5.777l5.616-9.172
			C291.602,394.342,342.599,339.764,342.599,339.764z"/>
		<path fill="#F16577" d="M209.592,346.512l39.279-64.143l97.626,59.782C346.497,342.15,291.602,394.342,209.592,346.512z"/>
		<polygon display="none" fill="#7DA95A" points="252.976,275.664 242.735,292.388 209.592,346.512 203.976,355.684 
			189.731,378.945 57.985,298.268 121.229,194.988 		"/>
	</g>
	<path fill="#353434" d="M299.672,329.133c0,0-4.051-1.817-1.671-5.745C298.001,323.387,302.486,324.899,299.672,329.133z"/>
	<path fill="#353434" d="M282.704,329.253c0,0-3.04-3.236,0.668-5.946C283.372,323.307,286.93,326.428,282.704,329.253z"/>
	<path fill="#353434" d="M263.852,324.851c0,0-1.708-4.098,2.716-5.332C266.568,319.52,268.801,323.692,263.852,324.851z"/>
	<path fill="#353434" d="M246.02,317.442c0,0-1.582-4.148,2.877-5.246C248.898,312.196,251.003,316.435,246.02,317.442z"/>
	<g>
		<path fill="#8AC641" d="M342.967,286.337c0-22.262,18.047-40.308,40.308-40.308v80.617
			C361.013,326.646,342.967,308.599,342.967,286.337z"/>
	</g>
	<g>
		<path fill="#C5DB5E" d="M383.275,246.035v25.253l5.64-14.482l-0.108,15.629l10.529-11.131l-5.84,14.396l13.816-6.085
			l-10.683,10.971l14.999-0.113l-13.899,5.877l13.899,5.877l-14.999-0.113l10.683,10.971l-13.816-6.085l5.84,14.396l-10.529-11.131
			l0.108,15.629l-5.64-14.482v25.242c22.262,0,40.308-18.047,40.308-40.308C423.583,264.081,405.537,246.035,383.275,246.035z"/>
		<polygon fill="#C5DB5E" points="377.635,256.806 377.744,272.434 367.215,261.303 373.055,275.699 359.239,269.614 
			369.921,280.585 354.922,280.472 368.821,286.349 354.922,292.225 369.921,292.113 359.239,303.084 373.055,296.999 
			367.215,311.395 377.744,300.264 377.635,315.892 383.275,301.41 383.275,271.288 		"/>
	</g>
	<path fill="#C5DB5E" d="M423.583,286.343c0-22.262-18.047-40.308-40.308-40.308v80.617
		C405.537,326.652,423.583,308.605,423.583,286.343z"/>
	<polygon fill="#D7E373" points="388.915,256.8 388.806,272.428 399.336,261.297 393.496,275.693 407.311,269.608 396.629,280.579 
		411.628,280.467 397.729,286.343 411.628,292.22 396.629,292.107 407.311,303.078 393.496,296.993 399.336,311.389 
		388.806,300.258 388.915,315.887 383.275,301.404 383.275,271.282 	"/>
	<path fill="#353434" d="M374.408,294.717c0,0,2.666,0.342,2.679-2.438C377.088,292.278,374.294,291.641,374.408,294.717z"/>
	<path fill="#353434" d="M372.536,289.564c0,0,2.276,1.43,3.456-1.088C375.992,288.476,373.724,286.724,372.536,289.564z"/>
	<path fill="#353434" d="M372.191,283.26c0,0,1.315,2.344,3.555,0.697C375.746,283.957,374.592,281.335,372.191,283.26z"/>
	<path fill="#353434" d="M374.264,278.264c0,0,0.248,2.677,2.965,2.082C377.229,280.346,377.24,277.48,374.264,278.264z"/>
	<path fill="#353434" d="M379.367,274.559c0,0-1.717,2.068,0.624,3.569C379.992,278.128,382.026,276.11,379.367,274.559z"/>
	<path fill="#353434" d="M379.582,298.324c0,0,2.252-1.468,0.459-3.594C380.041,294.73,377.501,296.056,379.582,298.324z"/>
	<path fill="#5C5749" d="M392.072,294.624c0,0-2.666,0.342-2.679-2.438C389.392,292.186,392.186,291.548,392.072,294.624z"/>
	<path fill="#5C5749" d="M393.944,289.471c0,0-2.276,1.43-3.456-1.088C390.488,288.383,392.756,286.632,393.944,289.471z"/>
	<path fill="#5C5749" d="M394.289,283.168c0,0-1.315,2.344-3.555,0.697C390.734,283.864,391.888,281.242,394.289,283.168z"/>
	<path fill="#5C5749" d="M392.216,278.171c0,0-0.248,2.677-2.965,2.082C389.251,280.253,389.24,277.388,392.216,278.171z"/>
	<path fill="#5C5749" d="M387.113,274.467c0,0,1.717,2.068-0.624,3.569C386.488,278.035,384.454,276.018,387.113,274.467z"/>
	<path fill="#5C5749" d="M386.899,298.231c0,0-2.252-1.468-0.459-3.594C386.439,294.637,388.979,295.963,386.899,298.231z"/>
	<path fill="#3E7942" d="M219.247,96.296c0,0,13.831,13.814,26.258-2.139C245.505,94.156,232.251,78.08,219.247,96.296z"/>
	<path fill="#3E7942" d="M215.991,68.377c0,0,15.654,11.707,1.648,26.293C217.64,94.671,199.828,83.859,215.991,68.377z"/>
	<path fill="#324699" d="M210.035,104.317c-4.066,4.697-11.169,5.209-15.867,1.144c-1.39-1.203-2.413-2.672-3.06-4.266
		c-1.539-3.793-0.946-8.293,1.917-11.601c4.066-4.697,11.169-5.209,15.867-1.144C213.588,92.516,214.1,99.619,210.035,104.317z"/>
	<g>
		<path fill="#4A61AC" d="M212.772,97.337c0.213-5.468-3.881-8.887-3.881-8.887l-4.52,5.223l3.603,1.857l-2.411,3.259l-0.653,4.001
			l-3.844-1.286l-4.006,0.616l-2.883,3.331c0,0,3.096,3.103,8.047,2.731C207.176,107.807,212.509,104.067,212.772,97.337z"/>
		<polygon fill="#1D1F4E" points="202.016,90.373 199.137,93.226 195.271,94.446 197.095,98.066 197.06,102.119 204.371,93.673 		
			"/>
		<polygon fill="#2C2F74" points="207.974,95.53 205.563,98.788 204.911,102.789 201.067,101.503 197.06,102.119 204.371,93.673 		
			"/>
	</g>
	<path fill="#324699" d="M227.495,119.429c-4.066,4.697-11.169,5.209-15.867,1.144c-1.39-1.203-2.413-2.672-3.06-4.266
		c-1.539-3.793-0.946-8.293,1.917-11.601c4.066-4.697,11.169-5.209,15.867-1.144C231.049,107.628,231.561,114.732,227.495,119.429z"
		/>
	<g>
		<path fill="#4A61AC" d="M230.232,112.449c0.213-5.468-3.881-8.887-3.881-8.887l-4.52,5.223l3.603,1.857l-2.411,3.259l-0.653,4.001
			l-3.844-1.286l-4.006,0.616l-2.883,3.331c0,0,3.096,3.103,8.047,2.731C224.637,122.92,229.97,119.179,230.232,112.449z"/>
		<polygon fill="#1D1F4E" points="219.477,105.486 216.597,108.339 212.732,109.558 214.555,113.178 214.52,117.231 
			221.831,108.785 		"/>
		<polygon fill="#2C2F74" points="225.434,110.642 223.024,113.901 222.371,117.901 218.527,116.616 214.52,117.231 
			221.831,108.785 		"/>
	</g>
	<path fill="#324699" d="M205.559,127.112c-4.066,4.697-11.169,5.209-15.867,1.144c-1.39-1.203-2.413-2.672-3.06-4.266
		c-1.539-3.793-0.946-8.293,1.917-11.601c4.066-4.697,11.169-5.209,15.867-1.144C209.113,115.311,209.625,122.415,205.559,127.112z"
		/>
	<g>
		<path fill="#4A61AC" d="M208.296,120.132c0.213-5.468-3.881-8.887-3.881-8.887l-4.52,5.223l3.603,1.857l-2.411,3.259l-0.653,4.001
			l-3.844-1.286l-4.006,0.616l-2.883,3.331c0,0,3.096,3.103,8.047,2.731C202.701,130.603,208.034,126.862,208.296,120.132z"/>
		<polygon fill="#1D1F4E" points="197.541,113.168 194.661,116.021 190.796,117.241 192.619,120.861 192.584,124.914 
			199.895,116.468 		"/>
		<polygon fill="#2C2F74" points="203.498,118.325 201.088,121.584 200.435,125.584 196.591,124.299 192.584,124.914 
			199.895,116.468 		"/>
	</g>
</g>
</svg>
