<?xml version="1.0" encoding="utf-8"?>
<!-- Generator: Adobe Illustrator 17.1.0, SVG Export Plug-In . SVG Version: 6.00 Build 0)  -->
<!DOCTYPE svg PUBLIC "-//W3C//DTD SVG 1.1//EN" "http://www.w3.org/Graphics/SVG/1.1/DTD/svg11.dtd">
<svg version="1.1" id="Layer_1" xmlns="http://www.w3.org/2000/svg" xmlns:xlink="http://www.w3.org/1999/xlink" x="0px" y="0px"
	 viewBox="0 0 424.221 435.122" enable-background="new 0 0 424.221 435.122" xml:space="preserve">
<g display="none">
	
		<circle display="inline" fill="#44AB4A" stroke="#E0E1E0" stroke-width="13" stroke-miterlimit="10" cx="212.721" cy="223.622" r="205"/>
	
		<path display="inline" fill="#FFFFFF" stroke="#39793E" stroke-width="13" stroke-linecap="round" stroke-linejoin="round" stroke-miterlimit="10" d="
		M135.401,337.914c0-12.678,0-219.156,0-219.156s-0.257-9.633,9.509-9.509c12.225,0.156,170.706,0,170.706,0
		s11.115-0.11,11.094,9.282c-0.023,10.188,0,192.214,0,192.214s1.585,27.168-22.866,27.168c-24.451,0-167.794,0-167.794,0H135.401z"
		/>
	<rect x="101.473" y="159.432" display="inline" fill="#FFFFFF" width="28.357" height="175.773"/>
	<path display="inline" fill="#FFFFFF" d="M123.401,319.301c0,10.28-8.333,18.613-18.613,18.613l0,0
		c-10.28,0-18.613-8.333-18.613-18.613V178.045c0-10.28,8.333-18.613,18.613-18.613l0,0c10.28,0,18.613,8.333,18.613,18.613V319.301
		z"/>
	
		<path display="inline" fill="none" stroke="#39793E" stroke-width="12" stroke-linecap="round" stroke-linejoin="round" stroke-miterlimit="10" d="
		M110.455,293.623c0-17.658,0-112.742,0-112.742s1.198-21.449-12.279-21.449c-11.671,0-13.835,14.658-13.835,20.091l-0.02,127.634
		c0,0-2.455,30.222,32.186,30.757h22.516"/>
	
		<line display="inline" fill="none" stroke="#39793E" stroke-width="12" stroke-linecap="round" stroke-linejoin="round" stroke-miterlimit="10" x1="101.473" y1="159.311" x2="132.238" y2="159.311"/>
	
		<line display="inline" fill="none" stroke="#39793E" stroke-width="9" stroke-linecap="round" stroke-linejoin="round" stroke-miterlimit="10" x1="158.323" y1="160.667" x2="307.003" y2="160.667"/>
	
		<line display="inline" fill="none" stroke="#39793E" stroke-width="9" stroke-linecap="round" stroke-linejoin="round" stroke-miterlimit="10" x1="158.323" y1="137.641" x2="307.003" y2="137.641"/>
	
		<line display="inline" fill="none" stroke="#39793E" stroke-width="9" stroke-linecap="round" stroke-linejoin="round" stroke-miterlimit="10" x1="158.323" y1="283.435" x2="307.003" y2="283.435"/>
	
		<line display="inline" fill="none" stroke="#39793E" stroke-width="9" stroke-linecap="round" stroke-linejoin="round" stroke-miterlimit="10" x1="158.323" y1="306.527" x2="307.003" y2="306.527"/>
	
		<line display="inline" fill="none" stroke="#39793E" stroke-width="9" stroke-linecap="round" stroke-linejoin="round" stroke-miterlimit="10" x1="232.663" y1="189.709" x2="307.003" y2="189.709"/>
	
		<line display="inline" fill="none" stroke="#39793E" stroke-width="9" stroke-linecap="round" stroke-linejoin="round" stroke-miterlimit="10" x1="232.663" y1="211.442" x2="307.003" y2="211.442"/>
	
		<line display="inline" fill="none" stroke="#39793E" stroke-width="9" stroke-linecap="round" stroke-linejoin="round" stroke-miterlimit="10" x1="232.663" y1="234.534" x2="307.003" y2="234.534"/>
	
		<line display="inline" fill="none" stroke="#39793E" stroke-width="9" stroke-linecap="round" stroke-linejoin="round" stroke-miterlimit="10" x1="232.663" y1="258.985" x2="307.003" y2="258.985"/>
	<path display="inline" fill="none" stroke="#39793E" stroke-width="9" stroke-miterlimit="10" d="M214.631,249.03
		c0,5.498-3.531,9.956-7.886,9.956h-40.536c-4.355,0-7.886-4.457-7.886-9.956v-51.176c0-5.498,3.531-9.956,7.886-9.956h40.536
		c4.355,0,7.886,4.457,7.886,9.956V249.03z"/>
</g>
<g display="none">
	<path display="inline" fill="#44AB4A" stroke="#E0E1E0" stroke-width="13" stroke-miterlimit="10" d="M346.542,121.492
		C280.456,48.383,167.615,42.69,94.506,108.776S15.705,287.703,81.791,360.812c59.322,65.625,156.31,76.917,228.423,30.745
		l64.812,26.162l-20.842-65.923C407.336,284.697,405.848,187.1,346.542,121.492z"/>
	
		<path display="inline" fill="#FFFFFF" stroke="#39793E" stroke-width="10" stroke-linecap="round" stroke-linejoin="round" stroke-miterlimit="10" d="
		M303.573,351.915v-73.865c0-13.219-10.716-23.936-23.936-23.936H148.06c-13.219,0-23.936,10.716-23.936,23.936v75.454
		C214.163,414.856,303.573,351.915,303.573,351.915z"/>
	
		<circle display="inline" fill="#FFFFFF" stroke="#39793E" stroke-width="11" stroke-linecap="round" stroke-linejoin="round" stroke-miterlimit="10" cx="212.846" cy="173.837" r="58.734"/>
	
		<line display="inline" fill="none" stroke="#39793E" stroke-width="11" stroke-linecap="round" stroke-linejoin="round" stroke-miterlimit="10" x1="154.112" y1="313.207" x2="154.112" y2="368.653"/>
	
		<line display="inline" fill="#3C9251" stroke="#E0E1E0" stroke-width="13" stroke-linecap="round" stroke-linejoin="round" stroke-miterlimit="10" x1="214.163" y1="6.5" x2="214.163" y2="36.104"/>
	
		<line display="inline" fill="#3C9251" stroke="#E0E1E0" stroke-width="13" stroke-linecap="round" stroke-linejoin="round" stroke-miterlimit="10" x1="176.277" y1="8.209" x2="190.954" y2="36.795"/>
	
		<line display="inline" fill="#3C9251" stroke="#E0E1E0" stroke-width="13" stroke-linecap="round" stroke-linejoin="round" stroke-miterlimit="10" x1="253.412" y1="7.81" x2="238.735" y2="36.396"/>
	
		<line display="inline" fill="none" stroke="#39793E" stroke-width="11" stroke-linecap="round" stroke-linejoin="round" stroke-miterlimit="10" x1="271.58" y1="313.207" x2="271.58" y2="367.653"/>
</g>
<circle display="none" fill="#44AB4A" stroke="#E0E1E0" stroke-width="13" stroke-miterlimit="10" cx="210.649" cy="219.285" r="205"/>
<path display="none" fill="#FFFFFF" stroke="#3C7940" stroke-width="13" stroke-linecap="round" stroke-linejoin="round" stroke-miterlimit="10" d="
	M324.744,224.566c7.717-12.364,7.717-19.136,7.717-30.026c0-34.378-27.869-62.247-62.247-62.247
	c-27.733,0-51.22,18.141-59.267,43.201c-7.415-26.087-31.4-45.201-59.864-45.201c-34.378,0-62.247,27.869-62.247,62.247
	c0,12.11,3.47,23.404,9.453,32.965c8.455,16.697,98.899,100.914,98.899,100.914c7.81,7.81,20.474,7.81,28.284,0
	C225.472,326.419,306.744,252.869,324.744,224.566z"/>
<circle fill="#DE4726" stroke="#E0E1E0" stroke-width="13" stroke-miterlimit="10" cx="211.5" cy="219.285" r="205"/>
<path fill="#FFFFFF" stroke="#982F1F" stroke-width="13" stroke-miterlimit="10" d="M295.156,183.044h-47.415v-47.415
	c0-12.432-12.481-22.51-27.878-22.51h-16.727c-15.396,0-27.878,10.078-27.878,22.51v47.415h-47.415
	c-12.432,0-22.51,12.481-22.51,27.878v16.727c0,15.396,10.078,27.878,22.51,27.878h47.415v47.415
	c0,12.432,12.481,22.51,27.878,22.51h16.727c15.396,0,27.878-10.078,27.878-22.51v-47.415h47.415
	c12.432,0,22.51-12.481,22.51-27.878v-16.727C317.665,195.525,307.587,183.044,295.156,183.044z"/>
</svg>
