<?xml version="1.0" encoding="utf-8"?>
<!-- Generator: Adobe Illustrator 17.1.0, SVG Export Plug-In . SVG Version: 6.00 Build 0)  -->
<!DOCTYPE svg PUBLIC "-//W3C//DTD SVG 1.1//EN" "http://www.w3.org/Graphics/SVG/1.1/DTD/svg11.dtd">
<svg version="1.1" id="Layer_1" xmlns="http://www.w3.org/2000/svg" xmlns:xlink="http://www.w3.org/1999/xlink" x="0px" y="0px"
	 viewBox="0 0 423 423" enable-background="new 0 0 423 423" xml:space="preserve">
<g>
	<circle fill="#44AB4A" stroke="#E0E1E0" stroke-width="13" stroke-miterlimit="10" cx="211.5" cy="211.5" r="205"/>
	
		<path fill="#FFFFFF" stroke="#39793E" stroke-width="13" stroke-linecap="round" stroke-linejoin="round" stroke-miterlimit="10" d="
		M134.18,325.791c0-12.678,0-219.156,0-219.156s-0.257-9.633,9.509-9.509c12.225,0.156,170.706,0,170.706,0
		s11.115-0.11,11.094,9.282c-0.023,10.188,0,192.214,0,192.214s1.585,27.168-22.866,27.168c-24.451,0-167.794,0-167.794,0H134.18z"
		/>
	<rect x="100.251" y="147.31" fill="#FFFFFF" width="28.357" height="175.773"/>
	<path fill="#FFFFFF" d="M122.18,307.179c0,10.28-8.333,18.613-18.613,18.613l0,0c-10.28,0-18.613-8.333-18.613-18.613V165.923
		c0-10.28,8.333-18.613,18.613-18.613l0,0c10.28,0,18.613,8.333,18.613,18.613V307.179z"/>
	<path fill="none" stroke="#39793E" stroke-width="12" stroke-linecap="round" stroke-linejoin="round" stroke-miterlimit="10" d="
		M109.233,281.501c0-17.658,0-112.742,0-112.742s1.198-21.449-12.279-21.449c-11.671,0-13.835,14.658-13.835,20.091l-0.02,127.634
		c0,0-2.455,30.222,32.186,30.757h22.516"/>
	
		<line fill="none" stroke="#39793E" stroke-width="12" stroke-linecap="round" stroke-linejoin="round" stroke-miterlimit="10" x1="100.251" y1="147.189" x2="131.016" y2="147.189"/>
	
		<line fill="none" stroke="#39793E" stroke-width="9" stroke-linecap="round" stroke-linejoin="round" stroke-miterlimit="10" x1="157.102" y1="148.545" x2="305.782" y2="148.545"/>
	
		<line fill="none" stroke="#39793E" stroke-width="9" stroke-linecap="round" stroke-linejoin="round" stroke-miterlimit="10" x1="157.102" y1="125.518" x2="305.782" y2="125.518"/>
	
		<line fill="none" stroke="#39793E" stroke-width="9" stroke-linecap="round" stroke-linejoin="round" stroke-miterlimit="10" x1="157.102" y1="271.313" x2="305.782" y2="271.313"/>
	
		<line fill="none" stroke="#39793E" stroke-width="9" stroke-linecap="round" stroke-linejoin="round" stroke-miterlimit="10" x1="157.102" y1="294.405" x2="305.782" y2="294.405"/>
	
		<line fill="none" stroke="#39793E" stroke-width="9" stroke-linecap="round" stroke-linejoin="round" stroke-miterlimit="10" x1="231.442" y1="177.587" x2="305.782" y2="177.587"/>
	
		<line fill="none" stroke="#39793E" stroke-width="9" stroke-linecap="round" stroke-linejoin="round" stroke-miterlimit="10" x1="231.442" y1="199.32" x2="305.782" y2="199.32"/>
	
		<line fill="none" stroke="#39793E" stroke-width="9" stroke-linecap="round" stroke-linejoin="round" stroke-miterlimit="10" x1="231.442" y1="222.412" x2="305.782" y2="222.412"/>
	
		<line fill="none" stroke="#39793E" stroke-width="9" stroke-linecap="round" stroke-linejoin="round" stroke-miterlimit="10" x1="231.442" y1="246.863" x2="305.782" y2="246.863"/>
	<path fill="none" stroke="#39793E" stroke-width="9" stroke-miterlimit="10" d="M213.41,236.907c0,5.498-3.531,9.956-7.886,9.956
		h-40.536c-4.355,0-7.886-4.457-7.886-9.956v-51.176c0-5.498,3.531-9.956,7.886-9.956h40.536c4.355,0,7.886,4.457,7.886,9.956
		V236.907z"/>
</g>
</svg>
