<?xml version="1.0" encoding="utf-8"?>
<!-- Generator: Adobe Illustrator 17.1.0, SVG Export Plug-In . SVG Version: 6.00 Build 0)  -->
<!DOCTYPE svg PUBLIC "-//W3C//DTD SVG 1.1//EN" "http://www.w3.org/Graphics/SVG/1.1/DTD/svg11.dtd">
<svg version="1.1" id="Layer_1" xmlns="http://www.w3.org/2000/svg" xmlns:xlink="http://www.w3.org/1999/xlink" x="0px" y="0px"
	 viewBox="0 0 423 435.122" enable-background="new 0 0 423 435.122" xml:space="preserve">
<g display="none">
	
		<circle display="inline" fill="#44AB4A" stroke="#E0E1E0" stroke-width="13" stroke-miterlimit="10" cx="211.5" cy="223.622" r="205"/>
	
		<path display="inline" fill="#FFFFFF" stroke="#39793E" stroke-width="13" stroke-linecap="round" stroke-linejoin="round" stroke-miterlimit="10" d="
		M134.18,337.914c0-12.678,0-219.156,0-219.156s-0.257-9.633,9.509-9.509c12.225,0.156,170.706,0,170.706,0
		s11.115-0.11,11.094,9.282c-0.023,10.188,0,192.214,0,192.214s1.585,27.168-22.866,27.168c-24.451,0-167.794,0-167.794,0H134.18z"
		/>
	<rect x="100.251" y="159.432" display="inline" fill="#FFFFFF" width="28.357" height="175.773"/>
	<path display="inline" fill="#FFFFFF" d="M122.18,319.301c0,10.28-8.333,18.613-18.613,18.613l0,0
		c-10.28,0-18.613-8.333-18.613-18.613V178.045c0-10.28,8.333-18.613,18.613-18.613l0,0c10.28,0,18.613,8.333,18.613,18.613V319.301
		z"/>
	
		<path display="inline" fill="none" stroke="#39793E" stroke-width="12" stroke-linecap="round" stroke-linejoin="round" stroke-miterlimit="10" d="
		M109.233,293.623c0-17.658,0-112.742,0-112.742s1.198-21.449-12.279-21.449c-11.671,0-13.835,14.658-13.835,20.091l-0.02,127.634
		c0,0-2.455,30.222,32.186,30.757h22.516"/>
	
		<line display="inline" fill="none" stroke="#39793E" stroke-width="12" stroke-linecap="round" stroke-linejoin="round" stroke-miterlimit="10" x1="100.251" y1="159.311" x2="131.016" y2="159.311"/>
	
		<line display="inline" fill="none" stroke="#39793E" stroke-width="9" stroke-linecap="round" stroke-linejoin="round" stroke-miterlimit="10" x1="157.102" y1="160.667" x2="305.782" y2="160.667"/>
	
		<line display="inline" fill="none" stroke="#39793E" stroke-width="9" stroke-linecap="round" stroke-linejoin="round" stroke-miterlimit="10" x1="157.102" y1="137.641" x2="305.782" y2="137.641"/>
	
		<line display="inline" fill="none" stroke="#39793E" stroke-width="9" stroke-linecap="round" stroke-linejoin="round" stroke-miterlimit="10" x1="157.102" y1="283.435" x2="305.782" y2="283.435"/>
	
		<line display="inline" fill="none" stroke="#39793E" stroke-width="9" stroke-linecap="round" stroke-linejoin="round" stroke-miterlimit="10" x1="157.102" y1="306.527" x2="305.782" y2="306.527"/>
	
		<line display="inline" fill="none" stroke="#39793E" stroke-width="9" stroke-linecap="round" stroke-linejoin="round" stroke-miterlimit="10" x1="231.442" y1="189.709" x2="305.782" y2="189.709"/>
	
		<line display="inline" fill="none" stroke="#39793E" stroke-width="9" stroke-linecap="round" stroke-linejoin="round" stroke-miterlimit="10" x1="231.442" y1="211.442" x2="305.782" y2="211.442"/>
	
		<line display="inline" fill="none" stroke="#39793E" stroke-width="9" stroke-linecap="round" stroke-linejoin="round" stroke-miterlimit="10" x1="231.442" y1="234.534" x2="305.782" y2="234.534"/>
	
		<line display="inline" fill="none" stroke="#39793E" stroke-width="9" stroke-linecap="round" stroke-linejoin="round" stroke-miterlimit="10" x1="231.442" y1="258.985" x2="305.782" y2="258.985"/>
	<path display="inline" fill="none" stroke="#39793E" stroke-width="9" stroke-miterlimit="10" d="M213.41,249.03
		c0,5.498-3.531,9.956-7.886,9.956h-40.536c-4.355,0-7.886-4.457-7.886-9.956v-51.176c0-5.498,3.531-9.956,7.886-9.956h40.536
		c4.355,0,7.886,4.457,7.886,9.956V249.03z"/>
</g>
<g>
	<path fill="#44AB4A" stroke="#E0E1E0" stroke-width="13" stroke-miterlimit="10" d="M345.321,121.492
		C279.234,48.383,166.394,42.69,93.285,108.776S14.483,287.703,80.57,360.812c59.322,65.625,156.31,76.917,228.423,30.745
		l64.812,26.162l-20.842-65.923C406.114,284.697,404.626,187.1,345.321,121.492z"/>
	
		<path fill="#FFFFFF" stroke="#39793E" stroke-width="10" stroke-linecap="round" stroke-linejoin="round" stroke-miterlimit="10" d="
		M302.351,351.915v-73.865c0-13.219-10.716-23.936-23.936-23.936H146.839c-13.219,0-23.936,10.716-23.936,23.936v75.454
		C212.942,414.856,302.351,351.915,302.351,351.915z"/>
	
		<circle fill="#FFFFFF" stroke="#39793E" stroke-width="11" stroke-linecap="round" stroke-linejoin="round" stroke-miterlimit="10" cx="211.625" cy="173.837" r="58.734"/>
	
		<line fill="none" stroke="#39793E" stroke-width="11" stroke-linecap="round" stroke-linejoin="round" stroke-miterlimit="10" x1="152.891" y1="313.207" x2="152.891" y2="368.653"/>
	
		<line fill="#3C9251" stroke="#E0E1E0" stroke-width="13" stroke-linecap="round" stroke-linejoin="round" stroke-miterlimit="10" x1="212.942" y1="6.5" x2="212.942" y2="36.104"/>
	
		<line fill="#3C9251" stroke="#E0E1E0" stroke-width="13" stroke-linecap="round" stroke-linejoin="round" stroke-miterlimit="10" x1="175.056" y1="8.209" x2="189.733" y2="36.795"/>
	
		<line fill="#3C9251" stroke="#E0E1E0" stroke-width="13" stroke-linecap="round" stroke-linejoin="round" stroke-miterlimit="10" x1="252.191" y1="7.81" x2="237.514" y2="36.396"/>
	
		<line fill="none" stroke="#39793E" stroke-width="11" stroke-linecap="round" stroke-linejoin="round" stroke-miterlimit="10" x1="270.359" y1="313.207" x2="270.359" y2="367.653"/>
</g>
</svg>
